# xmcd CD database file
#
# Track frame offsets:
#	150
#	18144
#	35386
#	50844
#	65913
#	80063
#	97245
#	120393
#	137560
#	149587
#	174964
#	190232
#	206484
#	226002
#	243922
#	258942
#	274984
#	293620
#	311208
#	326570
#
# Disc length: 4592 seconds
#
# Revision: 0
# Processed by: cddbd v1.5.2PL0 Copyright (c) Steve Scherf et al.
# Submitted via: CDex 1.79
#
DISCID=2811ee14
DTITLE=Hunter Hayes - Encore
DYEAR=2013
DGENRE=Country
TTITLE0=Storm Warning
TTITLE1=Wanted
TTITLE2=If You Told Me To
TTITLE3=Love Makes Me
TTITLE4=Faith to Fall Back On
TTITLE5=Somebody's Heartbreak
TTITLE6=Rainy Season
TTITLE7=Cry with You
TTITLE8=Everybody's Got Somebody but Me
TTITLE9=What You Gonna Do
TTITLE10=More Than I Should
TTITLE11=All You Ever
TTITLE12=In a Song
TTITLE13=I Want Crazy
TTITLE14=A Thing About You
TTITLE15=Better Than This
TTITLE16=Light Me Up
TTITLE17=The Making of Encore
TTITLE18=Behind the Scenes of "What You Gonna Do
TTITLE19=I Want Crazy
EXTD=YEAR: 2013
EXTT0=
EXTT1=
EXTT2=
EXTT3=
EXTT4=
EXTT5=
EXTT6=
EXTT7=
EXTT8=
EXTT9=
EXTT10=
EXTT11=
EXTT12=
EXTT13=
EXTT14=
EXTT15=
EXTT16=
EXTT17=
EXTT18=
EXTT19=
PLAYORDER=
